# xmcd CD database file
#
# Track frame offsets:
#	150
#	11850
#	23210
#	35035
#	49484
#	60946
#	71806
#	86924
#	100850
#	112680
#	124558
#	134932
#	147944
#	159123
#	170840
#	184545
#	197493
#	209462
#	221142
#	233462
#	246035
#	258766
#	271982
#	285357
#	294617
#
# Disc length: 4060 seconds
#
# Revision: 0
# Processed by: cddbd v1.5.2PL0 Copyright (c) Steve Scherf et al.
# Submitted via: CDex 1.40Release
#
DISCID=720fda19
DTITLE=Coree Carter - The Complete Recordings. Vol. 2. 1950-1954 - The Remaining Lester Williams
DYEAR=1900
DGENRE=Blues
TTITLE0=Seven Days
TTITLE1=When Night Falls
TTITLE2=Bull Corn Blues
TTITLE3=My Wish
TTITLE4=I've Got News For You
TTITLE5=I'm Your Boogie Man
TTITLE6=Please Say You're Mine
TTITLE7=Tell Me, Is There Still A Chance?
TTITLE8=Let's Make Love
TTITLE9=Winter Time Blues
TTITLE10=I'm So Glad I Could Jump And Shout
TTITLE11=Dowling Street Hop
TTITLE12=All I Need Is You
TTITLE13=I Know That Chick
TTITLE14=Don't Treat Me So Low Down
TTITLE15=Texas Town
TTITLE16=Hey Jack
TTITLE17=The Folks Around The Corner
TTITLE18=Mary Lou
TTITLE19=Let's Do It
TTITLE20=Crazy 'bout My Baby (Please Don't Leave Me Baby)
TTITLE21=Don't Ever Take Your Love From Me
TTITLE22=Good Loving Baby
TTITLE23=McDonald's Daughter
TTITLE24=Daddy Loves You
EXTD=ID3G: 0
EXTT0=
EXTT1=
EXTT2=
EXTT3=
EXTT4=
EXTT5=
EXTT6=
EXTT7=
EXTT8=
EXTT9=
EXTT10=
EXTT11=
EXTT12=
EXTT13=
EXTT14=
EXTT15=
EXTT16=
EXTT17=
EXTT18=
EXTT19=
EXTT20=
EXTT21=
EXTT22=
EXTT23=
EXTT24=
PLAYORDER=
